# xmcd
#
# Track frame offsets: 
#        183
#        13158
#        27183
#        40158
#        52083
#        64983
#        76008
#        88458
#        103233
#        114108
#        127008
#        142083
#        151983
#        162708
#        175608
#        187758
#        202608
#        214833
#        228858
#        244008
#
# Disc length: 3393 seconds
#
# Revision: 4
# Processed by: cddbd v1.5.2PL0 Copyright (c) Steve Scherf et al.
# Submitted via: ExactAudioCopyFreeDBPlugin 1.0
#
DISCID=0d0d3f14
DTITLE=Dean Martin - Everybody Loves Somebody - 20 Love Songs
DYEAR=1986
DGENRE=Oldies
TTITLE0=Everybody Loves Somebody
TTITLE1=The Door Is Still Open To My Heart
TTITLE2=In The Misty Moonlight
TTITLE3=In The Chapel Of The Moonlight
TTITLE4=You've Still Got A Place In My Heart
TTITLE5=Somewhere There's A Someone
TTITLE6=Born To Lose
TTITLE7=Crying Time
TTITLE8=I Wonder Who's Kissing Her Now
TTITLE9=I Can't Help It If I'm Still In Love With You
TTITLE10=Release Me
TTITLE11=You'll Always Be The One I Love
TTITLE12=The One I Love (Belongs To Somebody Else)
TTITLE13=Take These Chains From My Heart
TTITLE14=I'm So Lonesome I Could Cry
TTITLE15=My Heart Cries For You
TTITLE16=I'll Hold You In My Heart
TTITLE17=Room Full Of Roses
TTITLE18=Green Green Grass Of Home
TTITLE19=Welcome To My World
EXTD=
EXTT0=
EXTT1=
EXTT2=
EXTT3=
EXTT4=
EXTT5=
EXTT6=
EXTT7=
EXTT8=
EXTT9=
EXTT10=
EXTT11=
EXTT12=
EXTT13=
EXTT14=
EXTT15=
EXTT16=
EXTT17=
EXTT18=
EXTT19=
PLAYORDER=
